<mxfile host="app.diagrams.net" agent="Mozilla/5.0 (Windows NT 10.0; Win64; x64) AppleWebKit/537.36 (KHTML, like Gecko) Chrome/136.0.0.0 Safari/537.36" version="26.2.14" pages="2">
  <diagram name="1 oldal" id="pGfmBlZ7EV0eBKEnKnJB">
    <mxGraphModel dx="1226" dy="620" grid="1" gridSize="10" guides="1" tooltips="1" connect="1" arrows="1" fold="1" page="1" pageScale="1" pageWidth="827" pageHeight="1169" math="0" shadow="0">
      <root>
        <mxCell id="0" />
        <mxCell id="1" parent="0" />
        <mxCell id="DkxWbiAD8-A4mBRqWxPv-1" value="Player" style="shape=umlActor;verticalLabelPosition=bottom;verticalAlign=top;html=1;" parent="1" vertex="1">
          <mxGeometry x="50" y="50" width="30" height="60" as="geometry" />
        </mxCell>
        <mxCell id="DkxWbiAD8-A4mBRqWxPv-2" value="" style="shape=umlLifeline;perimeter=lifelinePerimeter;whiteSpace=wrap;html=1;container=1;dropTarget=0;collapsible=0;recursiveResize=0;outlineConnect=0;portConstraint=eastwest;newEdgeStyle={&quot;curved&quot;:0,&quot;rounded&quot;:0};size=0;" parent="1" vertex="1">
          <mxGeometry x="15" y="130" width="100" height="410" as="geometry" />
        </mxCell>
        <mxCell id="DkxWbiAD8-A4mBRqWxPv-3" value="ejectSporesButton: JButton" style="shape=umlLifeline;perimeter=lifelinePerimeter;whiteSpace=wrap;html=1;container=1;dropTarget=0;collapsible=0;recursiveResize=0;outlineConnect=0;portConstraint=eastwest;newEdgeStyle={&quot;curved&quot;:0,&quot;rounded&quot;:0};size=50;" parent="1" vertex="1">
          <mxGeometry x="180" y="80" width="120" height="460" as="geometry" />
        </mxCell>
        <mxCell id="DkxWbiAD8-A4mBRqWxPv-4" value="" style="html=1;points=[[0,0,0,0,5],[0,1,0,0,-5],[1,0,0,0,5],[1,1,0,0,-5]];perimeter=orthogonalPerimeter;outlineConnect=0;targetShapes=umlLifeline;portConstraint=eastwest;newEdgeStyle={&quot;curved&quot;:0,&quot;rounded&quot;:0};" parent="DkxWbiAD8-A4mBRqWxPv-3" vertex="1">
          <mxGeometry x="55" y="70" width="10" height="370" as="geometry" />
        </mxCell>
        <mxCell id="DkxWbiAD8-A4mBRqWxPv-5" value="ejectSporesButtonListener: ejectSporesButtonListener" style="shape=umlLifeline;perimeter=lifelinePerimeter;whiteSpace=wrap;html=1;container=1;dropTarget=0;collapsible=0;recursiveResize=0;outlineConnect=0;portConstraint=eastwest;newEdgeStyle={&quot;curved&quot;:0,&quot;rounded&quot;:0};size=50;" parent="1" vertex="1">
          <mxGeometry x="370" y="80" width="150" height="460" as="geometry" />
        </mxCell>
        <mxCell id="DkxWbiAD8-A4mBRqWxPv-6" value="" style="html=1;points=[[0,0,0,0,5],[0,1,0,0,-5],[1,0,0,0,5],[1,1,0,0,-5]];perimeter=orthogonalPerimeter;outlineConnect=0;targetShapes=umlLifeline;portConstraint=eastwest;newEdgeStyle={&quot;curved&quot;:0,&quot;rounded&quot;:0};" parent="DkxWbiAD8-A4mBRqWxPv-5" vertex="1">
          <mxGeometry x="70" y="90" width="10" height="350" as="geometry" />
        </mxCell>
        <mxCell id="DkxWbiAD8-A4mBRqWxPv-7" value="mushroomBodyControl: mushroomBodyControl" style="shape=umlLifeline;perimeter=lifelinePerimeter;whiteSpace=wrap;html=1;container=1;dropTarget=0;collapsible=0;recursiveResize=0;outlineConnect=0;portConstraint=eastwest;newEdgeStyle={&quot;curved&quot;:0,&quot;rounded&quot;:0};size=50;" parent="1" vertex="1">
          <mxGeometry x="570" y="80" width="140" height="460" as="geometry" />
        </mxCell>
        <mxCell id="DkxWbiAD8-A4mBRqWxPv-8" value="" style="html=1;points=[[0,0,0,0,5],[0,1,0,0,-5],[1,0,0,0,5],[1,1,0,0,-5]];perimeter=orthogonalPerimeter;outlineConnect=0;targetShapes=umlLifeline;portConstraint=eastwest;newEdgeStyle={&quot;curved&quot;:0,&quot;rounded&quot;:0};" parent="DkxWbiAD8-A4mBRqWxPv-7" vertex="1">
          <mxGeometry x="65" y="110" width="10" height="330" as="geometry" />
        </mxCell>
        <mxCell id="DkxWbiAD8-A4mBRqWxPv-9" value="&lt;span style=&quot;background-color: rgb(255, 255, 51);&quot;&gt;ejectSporesClicked()&lt;/span&gt;" style="html=1;verticalAlign=bottom;endArrow=block;curved=0;rounded=0;" parent="1" edge="1">
          <mxGeometry width="80" relative="1" as="geometry">
            <mxPoint x="64.5" y="160" as="sourcePoint" />
            <mxPoint x="235" y="160" as="targetPoint" />
          </mxGeometry>
        </mxCell>
        <mxCell id="DkxWbiAD8-A4mBRqWxPv-10" value="actionPerformed(e)" style="html=1;verticalAlign=bottom;endArrow=block;curved=0;rounded=0;entryX=0;entryY=0;entryDx=0;entryDy=5;" parent="1" edge="1">
          <mxGeometry relative="1" as="geometry">
            <mxPoint x="245" y="183.9999999999999" as="sourcePoint" />
            <mxPoint x="440" y="183.9999999999999" as="targetPoint" />
          </mxGeometry>
        </mxCell>
        <mxCell id="DkxWbiAD8-A4mBRqWxPv-11" value="" style="html=1;verticalAlign=bottom;endArrow=open;dashed=1;endSize=8;curved=0;rounded=0;exitX=0;exitY=1;exitDx=0;exitDy=-5;" parent="1" edge="1">
          <mxGeometry relative="1" as="geometry">
            <mxPoint x="245" y="479.9999999999984" as="targetPoint" />
            <mxPoint x="440" y="479.9999999999984" as="sourcePoint" />
          </mxGeometry>
        </mxCell>
        <mxCell id="DkxWbiAD8-A4mBRqWxPv-12" value="&lt;span style=&quot;background-color: light-dark(rgb(255, 255, 51), rgb(237, 237, 237));&quot;&gt;ejectSpores(target: Tecton)&lt;/span&gt;" style="html=1;verticalAlign=bottom;endArrow=block;curved=0;rounded=0;entryX=0;entryY=0;entryDx=0;entryDy=5;" parent="1" edge="1">
          <mxGeometry x="-0.0021" relative="1" as="geometry">
            <mxPoint x="450" y="213.0000000000001" as="sourcePoint" />
            <mxPoint x="635" y="213.0000000000001" as="targetPoint" />
            <mxPoint as="offset" />
          </mxGeometry>
        </mxCell>
        <mxCell id="DkxWbiAD8-A4mBRqWxPv-13" value="" style="html=1;verticalAlign=bottom;endArrow=open;dashed=1;endSize=8;curved=0;rounded=0;" parent="1" source="DkxWbiAD8-A4mBRqWxPv-8" edge="1">
          <mxGeometry relative="1" as="geometry">
            <mxPoint x="450" y="439.99999999999966" as="targetPoint" />
            <mxPoint x="630" y="440" as="sourcePoint" />
          </mxGeometry>
        </mxCell>
        <mxCell id="DkxWbiAD8-A4mBRqWxPv-14" value="&lt;span style=&quot;background-color: light-dark(rgb(255, 255, 51), rgb(237, 237, 237));&quot;&gt;mushroomBody: MushroomBody&lt;/span&gt;" style="shape=umlLifeline;perimeter=lifelinePerimeter;whiteSpace=wrap;html=1;container=1;dropTarget=0;collapsible=0;recursiveResize=0;outlineConnect=0;portConstraint=eastwest;newEdgeStyle={&quot;curved&quot;:0,&quot;rounded&quot;:0};size=50;" parent="1" vertex="1">
          <mxGeometry x="770" y="80" width="100" height="460" as="geometry" />
        </mxCell>
        <mxCell id="DkxWbiAD8-A4mBRqWxPv-15" value="" style="html=1;points=[[0,0,0,0,5],[0,1,0,0,-5],[1,0,0,0,5],[1,1,0,0,-5]];perimeter=orthogonalPerimeter;outlineConnect=0;targetShapes=umlLifeline;portConstraint=eastwest;newEdgeStyle={&quot;curved&quot;:0,&quot;rounded&quot;:0};" parent="DkxWbiAD8-A4mBRqWxPv-14" vertex="1">
          <mxGeometry x="45" y="150" width="10" height="60" as="geometry" />
        </mxCell>
        <mxCell id="DkxWbiAD8-A4mBRqWxPv-16" value="&lt;span style=&quot;background-color: rgb(255, 255, 51);&quot;&gt;ejectSpores(target: Tecton)&lt;/span&gt;" style="html=1;verticalAlign=bottom;endArrow=block;curved=0;rounded=0;entryX=0;entryY=0;entryDx=0;entryDy=5;" parent="1" edge="1">
          <mxGeometry relative="1" as="geometry">
            <mxPoint x="645" y="239" as="sourcePoint" />
            <mxPoint x="815" y="239" as="targetPoint" />
          </mxGeometry>
        </mxCell>
        <mxCell id="DkxWbiAD8-A4mBRqWxPv-17" value="" style="html=1;verticalAlign=bottom;endArrow=open;dashed=1;endSize=8;curved=0;rounded=0;exitX=0;exitY=1;exitDx=0;exitDy=-5;" parent="1" source="DkxWbiAD8-A4mBRqWxPv-15" target="DkxWbiAD8-A4mBRqWxPv-8" edge="1">
          <mxGeometry relative="1" as="geometry">
            <mxPoint x="700" y="285" as="targetPoint" />
          </mxGeometry>
        </mxCell>
        <mxCell id="DkxWbiAD8-A4mBRqWxPv-18" value="updateObject&lt;span style=&quot;background-color: rgb(255, 255, 51);&quot;&gt;(this)&lt;/span&gt;" style="html=1;verticalAlign=bottom;endArrow=block;curved=0;rounded=0;entryX=0;entryY=0;entryDx=0;entryDy=5;entryPerimeter=0;" parent="1" source="DkxWbiAD8-A4mBRqWxPv-8" target="DkxWbiAD8-A4mBRqWxPv-21" edge="1">
          <mxGeometry relative="1" as="geometry">
            <mxPoint x="870" y="315" as="sourcePoint" />
            <mxPoint x="960" y="325" as="targetPoint" />
          </mxGeometry>
        </mxCell>
        <mxCell id="DkxWbiAD8-A4mBRqWxPv-19" value="" style="html=1;verticalAlign=bottom;endArrow=open;dashed=1;endSize=8;curved=0;rounded=0;" parent="1" edge="1">
          <mxGeometry relative="1" as="geometry">
            <mxPoint x="645" y="402.5" as="targetPoint" />
            <mxPoint x="965" y="402.5" as="sourcePoint" />
            <Array as="points">
              <mxPoint x="730" y="402.5" />
            </Array>
          </mxGeometry>
        </mxCell>
        <mxCell id="DkxWbiAD8-A4mBRqWxPv-20" value="&lt;u&gt;: ViewRepository&lt;/u&gt;" style="shape=umlLifeline;perimeter=lifelinePerimeter;whiteSpace=wrap;html=1;container=1;dropTarget=0;collapsible=0;recursiveResize=0;outlineConnect=0;portConstraint=eastwest;newEdgeStyle={&quot;curved&quot;:0,&quot;rounded&quot;:0};size=50;" parent="1" vertex="1">
          <mxGeometry x="920" y="80" width="100" height="460" as="geometry" />
        </mxCell>
        <mxCell id="DkxWbiAD8-A4mBRqWxPv-21" value="" style="html=1;points=[[0,0,0,0,5],[0,1,0,0,-5],[1,0,0,0,5],[1,1,0,0,-5]];perimeter=orthogonalPerimeter;outlineConnect=0;targetShapes=umlLifeline;portConstraint=eastwest;newEdgeStyle={&quot;curved&quot;:0,&quot;rounded&quot;:0};" parent="DkxWbiAD8-A4mBRqWxPv-20" vertex="1">
          <mxGeometry x="45" y="240" width="10" height="100" as="geometry" />
        </mxCell>
        <mxCell id="DkxWbiAD8-A4mBRqWxPv-22" value="&lt;div&gt;&lt;span style=&quot;background-color: transparent; color: light-dark(rgb(0, 0, 0), rgb(255, 255, 255));&quot;&gt;swingMushroomBody:&lt;/span&gt;&lt;/div&gt;&lt;div&gt;SwingMushroomBody&lt;/div&gt;" style="shape=umlLifeline;perimeter=lifelinePerimeter;whiteSpace=wrap;html=1;container=1;dropTarget=0;collapsible=0;recursiveResize=0;outlineConnect=0;portConstraint=eastwest;newEdgeStyle={&quot;curved&quot;:0,&quot;rounded&quot;:0};" parent="1" vertex="1">
          <mxGeometry x="1080" y="80" width="130" height="460" as="geometry" />
        </mxCell>
        <mxCell id="DkxWbiAD8-A4mBRqWxPv-23" value="" style="html=1;points=[[0,0,0,0,5],[0,1,0,0,-5],[1,0,0,0,5],[1,1,0,0,-5]];perimeter=orthogonalPerimeter;outlineConnect=0;targetShapes=umlLifeline;portConstraint=eastwest;newEdgeStyle={&quot;curved&quot;:0,&quot;rounded&quot;:0};" parent="DkxWbiAD8-A4mBRqWxPv-22" vertex="1">
          <mxGeometry x="60" y="247.5" width="10" height="62.5" as="geometry" />
        </mxCell>
        <mxCell id="DkxWbiAD8-A4mBRqWxPv-24" value="update()" style="html=1;verticalAlign=bottom;endArrow=block;curved=0;rounded=0;" parent="1" edge="1">
          <mxGeometry relative="1" as="geometry">
            <mxPoint x="975" y="343" as="sourcePoint" />
            <mxPoint x="1140" y="343" as="targetPoint" />
          </mxGeometry>
        </mxCell>
        <mxCell id="DkxWbiAD8-A4mBRqWxPv-25" value="" style="html=1;verticalAlign=bottom;endArrow=open;dashed=1;endSize=8;curved=0;rounded=0;" parent="1" edge="1">
          <mxGeometry relative="1" as="geometry">
            <mxPoint x="975" y="382" as="targetPoint" />
            <mxPoint x="1140" y="382" as="sourcePoint" />
          </mxGeometry>
        </mxCell>
      </root>
    </mxGraphModel>
  </diagram>
  <diagram id="yFfIy4YPOtM3qrPD310A" name="2 oldal">
    <mxGraphModel dx="3270" dy="1293" grid="1" gridSize="10" guides="1" tooltips="1" connect="1" arrows="1" fold="1" page="1" pageScale="1" pageWidth="827" pageHeight="1169" math="0" shadow="0">
      <root>
        <mxCell id="0" />
        <mxCell id="1" parent="0" />
        <mxCell id="iGhPm-aEo7bhY4W-m7TC-1" value="Player" style="shape=umlActor;verticalLabelPosition=bottom;verticalAlign=top;html=1;" vertex="1" parent="1">
          <mxGeometry x="25" y="20" width="30" height="60" as="geometry" />
        </mxCell>
        <mxCell id="iGhPm-aEo7bhY4W-m7TC-2" value="" style="shape=umlLifeline;perimeter=lifelinePerimeter;whiteSpace=wrap;html=1;container=1;dropTarget=0;collapsible=0;recursiveResize=0;outlineConnect=0;portConstraint=eastwest;newEdgeStyle={&quot;curved&quot;:0,&quot;rounded&quot;:0};size=0;" vertex="1" parent="1">
          <mxGeometry x="-6" y="100" width="90" height="550" as="geometry" />
        </mxCell>
        <mxCell id="iGhPm-aEo7bhY4W-m7TC-3" value="" style="html=1;verticalAlign=bottom;endArrow=block;curved=0;rounded=0;exitX=0.511;exitY=0.067;exitDx=0;exitDy=0;exitPerimeter=0;" edge="1" parent="1" source="iGhPm-aEo7bhY4W-m7TC-2" target="iGhPm-aEo7bhY4W-m7TC-6">
          <mxGeometry width="80" relative="1" as="geometry">
            <mxPoint x="44.97368421052636" y="120" as="sourcePoint" />
            <mxPoint x="175.0000000000001" y="120" as="targetPoint" />
          </mxGeometry>
        </mxCell>
        <mxCell id="iGhPm-aEo7bhY4W-m7TC-4" value="onMouseReleased(e)" style="edgeLabel;html=1;align=center;verticalAlign=middle;resizable=0;points=[];" connectable="0" vertex="1" parent="iGhPm-aEo7bhY4W-m7TC-3">
          <mxGeometry x="-0.2443" relative="1" as="geometry">
            <mxPoint x="12" y="-10" as="offset" />
          </mxGeometry>
        </mxCell>
        <mxCell id="iGhPm-aEo7bhY4W-m7TC-5" value="mushroomBodyMouseAdapter: mushroomBodyMouseAdapter" style="shape=umlLifeline;perimeter=lifelinePerimeter;whiteSpace=wrap;html=1;container=1;dropTarget=0;collapsible=0;recursiveResize=0;outlineConnect=0;portConstraint=eastwest;newEdgeStyle={&quot;curved&quot;:0,&quot;rounded&quot;:0};" vertex="1" parent="1">
          <mxGeometry x="90" y="40" width="170" height="620" as="geometry" />
        </mxCell>
        <mxCell id="iGhPm-aEo7bhY4W-m7TC-6" value="" style="html=1;points=[[0,0,0,0,5],[0,1,0,0,-5],[1,0,0,0,5],[1,1,0,0,-5]];perimeter=orthogonalPerimeter;outlineConnect=0;targetShapes=umlLifeline;portConstraint=eastwest;newEdgeStyle={&quot;curved&quot;:0,&quot;rounded&quot;:0};" vertex="1" parent="iGhPm-aEo7bhY4W-m7TC-5">
          <mxGeometry x="80" y="60" width="10" height="150" as="geometry" />
        </mxCell>
        <mxCell id="iGhPm-aEo7bhY4W-m7TC-7" value="mushroomBody&lt;span style=&quot;background-color: rgb(255, 255, 51);&quot;&gt;Pop&lt;span style=&quot;background-color: rgb(255, 255, 51);&quot;&gt;u&lt;/span&gt;p&lt;/span&gt;Menu: J&lt;span style=&quot;background-color: rgb(255, 255, 51);&quot;&gt;Popup&lt;/span&gt;Menu" style="shape=umlLifeline;perimeter=lifelinePerimeter;whiteSpace=wrap;html=1;container=1;dropTarget=0;collapsible=0;recursiveResize=0;outlineConnect=0;portConstraint=eastwest;newEdgeStyle={&quot;curved&quot;:0,&quot;rounded&quot;:0};" vertex="1" parent="1">
          <mxGeometry x="280" y="40" width="160" height="620" as="geometry" />
        </mxCell>
        <mxCell id="iGhPm-aEo7bhY4W-m7TC-8" value="" style="html=1;points=[[0,0,0,0,5],[0,1,0,0,-5],[1,0,0,0,5],[1,1,0,0,-5]];perimeter=orthogonalPerimeter;outlineConnect=0;targetShapes=umlLifeline;portConstraint=eastwest;newEdgeStyle={&quot;curved&quot;:0,&quot;rounded&quot;:0};" vertex="1" parent="iGhPm-aEo7bhY4W-m7TC-7">
          <mxGeometry x="75" y="85" width="10" height="100" as="geometry" />
        </mxCell>
        <mxCell id="iGhPm-aEo7bhY4W-m7TC-9" value="show(e.component, e.x, e.y)" style="html=1;verticalAlign=bottom;endArrow=block;curved=0;rounded=0;" edge="1" parent="1">
          <mxGeometry relative="1" as="geometry">
            <mxPoint x="180" y="170" as="sourcePoint" />
            <mxPoint x="355" y="170" as="targetPoint" />
          </mxGeometry>
        </mxCell>
        <mxCell id="iGhPm-aEo7bhY4W-m7TC-10" value="" style="html=1;verticalAlign=bottom;endArrow=open;dashed=1;endSize=8;curved=0;rounded=0;" edge="1" parent="1">
          <mxGeometry relative="1" as="geometry">
            <mxPoint x="180" y="199" as="targetPoint" />
            <mxPoint x="355" y="199" as="sourcePoint" />
          </mxGeometry>
        </mxCell>
        <mxCell id="iGhPm-aEo7bhY4W-m7TC-11" value="ejetctSporesButton: JMenuItem" style="shape=umlLifeline;perimeter=lifelinePerimeter;whiteSpace=wrap;html=1;container=1;dropTarget=0;collapsible=0;recursiveResize=0;outlineConnect=0;portConstraint=eastwest;newEdgeStyle={&quot;curved&quot;:0,&quot;rounded&quot;:0};" vertex="1" parent="1">
          <mxGeometry x="480" y="40" width="110" height="620" as="geometry" />
        </mxCell>
        <mxCell id="iGhPm-aEo7bhY4W-m7TC-12" value="" style="html=1;points=[[0,0,0,0,5],[0,1,0,0,-5],[1,0,0,0,5],[1,1,0,0,-5]];perimeter=orthogonalPerimeter;outlineConnect=0;targetShapes=umlLifeline;portConstraint=eastwest;newEdgeStyle={&quot;curved&quot;:0,&quot;rounded&quot;:0};" vertex="1" parent="iGhPm-aEo7bhY4W-m7TC-11">
          <mxGeometry x="50" y="210" width="10" height="390" as="geometry" />
        </mxCell>
        <mxCell id="iGhPm-aEo7bhY4W-m7TC-13" value="ejectSporesButtonListener: ejectSporesButtonListener" style="shape=umlLifeline;perimeter=lifelinePerimeter;whiteSpace=wrap;html=1;container=1;dropTarget=0;collapsible=0;recursiveResize=0;outlineConnect=0;portConstraint=eastwest;newEdgeStyle={&quot;curved&quot;:0,&quot;rounded&quot;:0};" vertex="1" parent="1">
          <mxGeometry x="640" y="40" width="160" height="620" as="geometry" />
        </mxCell>
        <mxCell id="iGhPm-aEo7bhY4W-m7TC-14" value="" style="html=1;points=[[0,0,0,0,5],[0,1,0,0,-5],[1,0,0,0,5],[1,1,0,0,-5]];perimeter=orthogonalPerimeter;outlineConnect=0;targetShapes=umlLifeline;portConstraint=eastwest;newEdgeStyle={&quot;curved&quot;:0,&quot;rounded&quot;:0};" vertex="1" parent="iGhPm-aEo7bhY4W-m7TC-13">
          <mxGeometry x="77" y="230" width="10" height="340" as="geometry" />
        </mxCell>
        <mxCell id="iGhPm-aEo7bhY4W-m7TC-15" value="doClick()" style="html=1;verticalAlign=bottom;endArrow=block;curved=0;rounded=0;" edge="1" parent="1" source="iGhPm-aEo7bhY4W-m7TC-2">
          <mxGeometry width="80" relative="1" as="geometry">
            <mxPoint x="44.700000000000045" y="260" as="sourcePoint" />
            <mxPoint x="530" y="260" as="targetPoint" />
          </mxGeometry>
        </mxCell>
        <mxCell id="iGhPm-aEo7bhY4W-m7TC-16" value="actionPerformed(e)" style="html=1;verticalAlign=bottom;endArrow=block;curved=0;rounded=0;entryX=0;entryY=0;entryDx=0;entryDy=5;" edge="1" parent="1">
          <mxGeometry relative="1" as="geometry">
            <mxPoint x="540" y="280.0000000000001" as="sourcePoint" />
            <mxPoint x="717" y="280.0000000000001" as="targetPoint" />
          </mxGeometry>
        </mxCell>
        <mxCell id="iGhPm-aEo7bhY4W-m7TC-17" value="" style="html=1;verticalAlign=bottom;endArrow=open;dashed=1;endSize=8;curved=0;rounded=0;exitX=0;exitY=1;exitDx=0;exitDy=-5;" edge="1" parent="1">
          <mxGeometry relative="1" as="geometry">
            <mxPoint x="540" y="589.9999999999989" as="targetPoint" />
            <mxPoint x="717" y="589.9999999999989" as="sourcePoint" />
          </mxGeometry>
        </mxCell>
        <mxCell id="iGhPm-aEo7bhY4W-m7TC-18" value="..." style="text;html=1;align=center;verticalAlign=middle;resizable=0;points=[];autosize=1;strokeColor=none;fillColor=none;" vertex="1" parent="1">
          <mxGeometry x="765" y="308" width="30" height="30" as="geometry" />
        </mxCell>
        <mxCell id="iGhPm-aEo7bhY4W-m7TC-19" value="" style="html=1;verticalAlign=bottom;endArrow=open;dashed=1;endSize=8;curved=0;rounded=0;" edge="1" parent="1" source="iGhPm-aEo7bhY4W-m7TC-6">
          <mxGeometry relative="1" as="geometry">
            <mxPoint x="39.09999999999991" y="231" as="targetPoint" />
            <mxPoint x="154" y="231" as="sourcePoint" />
          </mxGeometry>
        </mxCell>
        <mxCell id="JXNc86Rbs-DaP5ipg1bE-1" value="mushroomBodyController: mushroomBodyController" style="shape=umlLifeline;perimeter=lifelinePerimeter;whiteSpace=wrap;html=1;container=1;dropTarget=0;collapsible=0;recursiveResize=0;outlineConnect=0;portConstraint=eastwest;newEdgeStyle={&quot;curved&quot;:0,&quot;rounded&quot;:0};size=40;" vertex="1" parent="1">
          <mxGeometry x="844" y="40" width="151" height="620" as="geometry" />
        </mxCell>
        <mxCell id="JXNc86Rbs-DaP5ipg1bE-2" value="" style="html=1;points=[[0,0,0,0,5],[0,1,0,0,-5],[1,0,0,0,5],[1,1,0,0,-5]];perimeter=orthogonalPerimeter;outlineConnect=0;targetShapes=umlLifeline;portConstraint=eastwest;newEdgeStyle={&quot;curved&quot;:0,&quot;rounded&quot;:0};" vertex="1" parent="JXNc86Rbs-DaP5ipg1bE-1">
          <mxGeometry x="70" y="250" width="10" height="290" as="geometry" />
        </mxCell>
        <mxCell id="JXNc86Rbs-DaP5ipg1bE-3" value="&lt;span style=&quot;background-color: light-dark(rgb(255, 255, 255), rgb(237, 237, 237));&quot;&gt;mushroomBody: MushroomBody&lt;/span&gt;" style="shape=umlLifeline;perimeter=lifelinePerimeter;whiteSpace=wrap;html=1;container=1;dropTarget=0;collapsible=0;recursiveResize=0;outlineConnect=0;portConstraint=eastwest;newEdgeStyle={&quot;curved&quot;:0,&quot;rounded&quot;:0};size=42;" vertex="1" parent="1">
          <mxGeometry x="1036" y="38" width="100" height="622" as="geometry" />
        </mxCell>
        <mxCell id="JXNc86Rbs-DaP5ipg1bE-4" value="" style="html=1;points=[[0,0,0,0,5],[0,1,0,0,-5],[1,0,0,0,5],[1,1,0,0,-5]];perimeter=orthogonalPerimeter;outlineConnect=0;targetShapes=umlLifeline;portConstraint=eastwest;newEdgeStyle={&quot;curved&quot;:0,&quot;rounded&quot;:0};" vertex="1" parent="JXNc86Rbs-DaP5ipg1bE-3">
          <mxGeometry x="45" y="292" width="10" height="60" as="geometry" />
        </mxCell>
        <mxCell id="JXNc86Rbs-DaP5ipg1bE-5" value="&lt;span style=&quot;background-color: rgb(255, 255, 255);&quot;&gt;ejectSpores(target: Tecton)&lt;/span&gt;" style="html=1;verticalAlign=bottom;endArrow=block;curved=0;rounded=0;" edge="1" parent="1">
          <mxGeometry relative="1" as="geometry">
            <mxPoint x="925" y="340" as="sourcePoint" />
            <mxPoint x="1080" y="340" as="targetPoint" />
          </mxGeometry>
        </mxCell>
        <mxCell id="JXNc86Rbs-DaP5ipg1bE-6" value="" style="html=1;verticalAlign=bottom;endArrow=open;dashed=1;endSize=8;curved=0;rounded=0;exitX=0;exitY=1;exitDx=0;exitDy=-5;" edge="1" parent="1" source="JXNc86Rbs-DaP5ipg1bE-4" target="JXNc86Rbs-DaP5ipg1bE-2">
          <mxGeometry relative="1" as="geometry">
            <mxPoint x="991" y="243" as="targetPoint" />
          </mxGeometry>
        </mxCell>
        <mxCell id="JXNc86Rbs-DaP5ipg1bE-7" value="&lt;span style=&quot;background-color: rgb(255, 255, 255);&quot;&gt;updateObject&lt;span&gt;(mushroomBody)&lt;/span&gt;&lt;/span&gt;" style="html=1;verticalAlign=bottom;endArrow=block;curved=0;rounded=0;" edge="1" parent="1" target="JXNc86Rbs-DaP5ipg1bE-10">
          <mxGeometry relative="1" as="geometry">
            <mxPoint x="927" y="423" as="sourcePoint" />
            <mxPoint x="1256" y="423" as="targetPoint" />
          </mxGeometry>
        </mxCell>
        <mxCell id="JXNc86Rbs-DaP5ipg1bE-8" value="" style="html=1;verticalAlign=bottom;endArrow=open;dashed=1;endSize=8;curved=0;rounded=0;" edge="1" parent="1" source="JXNc86Rbs-DaP5ipg1bE-10">
          <mxGeometry relative="1" as="geometry">
            <mxPoint x="924" y="529" as="targetPoint" />
            <mxPoint x="1252" y="529" as="sourcePoint" />
            <Array as="points">
              <mxPoint x="1017" y="529" />
            </Array>
          </mxGeometry>
        </mxCell>
        <mxCell id="JXNc86Rbs-DaP5ipg1bE-9" value="&lt;u&gt;: ViewRepository&lt;/u&gt;" style="shape=umlLifeline;perimeter=lifelinePerimeter;whiteSpace=wrap;html=1;container=1;dropTarget=0;collapsible=0;recursiveResize=0;outlineConnect=0;portConstraint=eastwest;newEdgeStyle={&quot;curved&quot;:0,&quot;rounded&quot;:0};size=42;" vertex="1" parent="1">
          <mxGeometry x="1181" y="38" width="100" height="622" as="geometry" />
        </mxCell>
        <mxCell id="JXNc86Rbs-DaP5ipg1bE-10" value="" style="html=1;points=[[0,0,0,0,5],[0,1,0,0,-5],[1,0,0,0,5],[1,1,0,0,-5]];perimeter=orthogonalPerimeter;outlineConnect=0;targetShapes=umlLifeline;portConstraint=eastwest;newEdgeStyle={&quot;curved&quot;:0,&quot;rounded&quot;:0};" vertex="1" parent="JXNc86Rbs-DaP5ipg1bE-9">
          <mxGeometry x="45" y="366" width="10" height="154" as="geometry" />
        </mxCell>
        <mxCell id="JXNc86Rbs-DaP5ipg1bE-11" value="&lt;div&gt;&lt;span style=&quot;background-color: transparent; color: light-dark(rgb(0, 0, 0), rgb(255, 255, 255));&quot;&gt;swingMushroomBody:&lt;/span&gt;&lt;/div&gt;&lt;div&gt;SwingMushroomBody&lt;/div&gt;" style="shape=umlLifeline;perimeter=lifelinePerimeter;whiteSpace=wrap;html=1;container=1;dropTarget=0;collapsible=0;recursiveResize=0;outlineConnect=0;portConstraint=eastwest;newEdgeStyle={&quot;curved&quot;:0,&quot;rounded&quot;:0};" vertex="1" parent="1">
          <mxGeometry x="1328" y="38" width="130" height="622" as="geometry" />
        </mxCell>
        <mxCell id="JXNc86Rbs-DaP5ipg1bE-12" value="" style="html=1;points=[[0,0,0,0,5],[0,1,0,0,-5],[1,0,0,0,5],[1,1,0,0,-5]];perimeter=orthogonalPerimeter;outlineConnect=0;targetShapes=umlLifeline;portConstraint=eastwest;newEdgeStyle={&quot;curved&quot;:0,&quot;rounded&quot;:0};" vertex="1" parent="JXNc86Rbs-DaP5ipg1bE-11">
          <mxGeometry x="60" y="398.5" width="10" height="91.5" as="geometry" />
        </mxCell>
        <mxCell id="JXNc86Rbs-DaP5ipg1bE-13" value="update()" style="html=1;verticalAlign=bottom;endArrow=block;curved=0;rounded=0;" edge="1" parent="1" target="JXNc86Rbs-DaP5ipg1bE-12">
          <mxGeometry relative="1" as="geometry">
            <mxPoint x="1236" y="452" as="sourcePoint" />
            <mxPoint x="1401" y="452" as="targetPoint" />
          </mxGeometry>
        </mxCell>
        <mxCell id="JXNc86Rbs-DaP5ipg1bE-14" value="" style="html=1;verticalAlign=bottom;endArrow=open;dashed=1;endSize=8;curved=0;rounded=0;" edge="1" parent="1" target="JXNc86Rbs-DaP5ipg1bE-10">
          <mxGeometry relative="1" as="geometry">
            <mxPoint x="1240" y="500" as="targetPoint" />
            <mxPoint x="1388" y="500" as="sourcePoint" />
          </mxGeometry>
        </mxCell>
        <mxCell id="mOQ4GQyuWjK8_E7eUOR_-1" value="&lt;span style=&quot;background-color: rgb(255, 255, 51);&quot;&gt;eject&lt;/span&gt;&lt;span style=&quot;background-color: rgb(255, 255, 255);&quot;&gt;(mushroomBody:&amp;nbsp;&lt;/span&gt;&lt;div&gt;&lt;span&gt;&lt;span style=&quot;background-color: rgb(255, 255, 255);&quot;&gt;MushroomBody,&amp;nbsp;&lt;/span&gt;&lt;span style=&quot;background-color: light-dark(rgb(255, 255, 255), rgb(18, 18, 18)); color: light-dark(rgb(0, 0, 0), rgb(255, 255, 255));&quot;&gt;target: Tecton)&lt;/span&gt;&lt;/span&gt;&lt;/div&gt;" style="html=1;verticalAlign=bottom;endArrow=block;curved=0;rounded=0;" edge="1" parent="1">
          <mxGeometry relative="1" as="geometry">
            <mxPoint x="726.9999999999998" y="310" as="sourcePoint" />
            <mxPoint x="914" y="310" as="targetPoint" />
          </mxGeometry>
        </mxCell>
        <mxCell id="mOQ4GQyuWjK8_E7eUOR_-2" value="" style="html=1;verticalAlign=bottom;endArrow=open;dashed=1;endSize=8;curved=0;rounded=0;" edge="1" parent="1">
          <mxGeometry relative="1" as="geometry">
            <mxPoint x="727" y="560" as="targetPoint" />
            <mxPoint x="914" y="560" as="sourcePoint" />
            <Array as="points">
              <mxPoint x="823" y="560" />
            </Array>
          </mxGeometry>
        </mxCell>
        <mxCell id="mOQ4GQyuWjK8_E7eUOR_-3" value="" style="html=1;verticalAlign=bottom;endArrow=open;dashed=1;endSize=8;curved=0;rounded=0;" edge="1" parent="1">
          <mxGeometry relative="1" as="geometry">
            <mxPoint x="38.54761904761904" y="619.9999999999999" as="targetPoint" />
            <mxPoint x="530" y="619.9999999999999" as="sourcePoint" />
          </mxGeometry>
        </mxCell>
      </root>
    </mxGraphModel>
  </diagram>
</mxfile>
